<?xml version="1.0" encoding="UTF-8" standalone="no"?>
<svg width="186px" height="182px" viewBox="0 0 186 182" version="1.1" xmlns="http://www.w3.org/2000/svg" xmlns:xlink="http://www.w3.org/1999/xlink">
    <!-- Generator: Sketch 50.2 (55047) - http://www.bohemiancoding.com/sketch -->
    <title>USA Icon</title>
    <desc>Created with Sketch.</desc>
    <defs></defs>
    <g id="Main" stroke="none" stroke-width="1" fill="none" fill-rule="evenodd">
        <g id="HOME" transform="translate(-302.000000, -1297.000000)" fill="#FEFEFE">
            <g id="2---Icons" transform="translate(-48.000000, 846.000000)">
                <g id="Symbols/Text" transform="translate(314.000000, 451.000000)">
                    <g id="USA-GROWN">
                        <g id="USA-Icon" transform="translate(36.000000, 0.000000)">
                            <path d="M92.5311623,6.39344262 C45.0983651,6.39344262 6.50863979,44.3001639 6.50863979,90.8934426 C6.50863979,137.486721 45.0983651,175.393443 92.5311623,175.393443 C139.96396,175.393443 178.553685,137.486721 178.553685,90.8934426 C178.553685,44.3001639 139.96396,6.39344262 92.5311623,6.39344262 M92.5311623,181.786885 C41.5090672,181.786885 0,141.012492 0,90.8934426 C0,40.7743934 41.5090672,0 92.5311623,0 C143.553257,0 185.062325,40.7743934 185.062325,90.8934426 C185.062325,141.012492 143.553257,181.786885 92.5311623,181.786885" id="Fill-1"></path>
                            <path d="M30.6452362,69.5183311 C30.6456701,69.5204623 30.6456701,69.5221672 30.6456701,69.5242984 C30.6456701,69.5221672 30.6456701,69.5204623 30.6452362,69.5183311 Z M111.929469,127.812036 C111.933808,127.884921 111.933808,127.972298 111.929035,128.070331 C111.934242,127.987643 111.93511,127.901118 111.929469,127.812036 Z M107.162107,128.034102 C107.162975,128.057118 107.164277,128.07843 107.165579,128.09761 C107.164277,128.077577 107.162975,128.056266 107.162107,128.034102 Z M113.917641,128.668331 C113.921547,128.66961 113.925886,128.670462 113.929357,128.671741 C113.925886,128.670462 113.921547,128.66961 113.917641,128.668331 Z M109.078685,129.253118 C109.312996,129.369479 109.506085,129.490102 109.648842,129.614134 C109.477013,129.464102 109.283924,129.343479 109.078685,129.253118 Z M106.48868,133.127118 C106.489982,133.128823 106.491717,133.130102 106.493019,133.13138 C106.491717,133.130102 106.489982,133.128823 106.48868,133.127118 Z M76.9073461,126.689774 C77.6905524,126.689774 78.4503276,126.888397 79.1289618,127.279249 C80.6051213,128.129151 81.6104892,129.7842 82.118597,132.200069 C82.4982676,134.006856 84.2260946,136.32043 85.4879029,138.01043 C85.8575936,138.505708 86.199948,138.96561 86.4880638,139.376921 C86.5722422,139.496692 86.683323,139.581511 86.7978751,139.640331 C87.061692,137.039479 89.0798042,134.312462 92.3601586,130.66479 C95.3024977,127.394331 97.2837277,127.391774 99.3894896,127.709315 C99.8368501,127.777085 100.221728,127.834626 100.646525,127.809905 C102.167811,127.714003 104.910986,128.026856 107.021521,128.554954 C107.090512,128.3282 107.142581,128.122331 107.160806,127.98679 C107.150392,127.439511 107.309636,126.507348 108.313269,125.699643 C109.698307,124.585905 113.193881,123.628167 115.143869,124.137085 C116.035553,124.369807 118.707133,124.631938 121.605647,124.455905 C124.733699,124.265807 126.397741,125.58243 127.499003,126.454495 C127.751538,126.654397 127.990622,126.843216 128.167223,126.944659 C128.168959,126.945511 128.170261,126.946364 128.171563,126.947216 C128.86278,127.342331 129.27673,128.025151 129.347891,128.75102 C129.745786,129.831511 131.297879,133.287807 132.078048,134.809872 C132.538426,135.707511 133.452673,136.533544 134.402066,137.203151 C134.373428,136.546331 134.334811,135.93938 134.313549,135.600102 C134.245425,134.707151 132.604814,131.642987 131.624179,129.811905 C130.867441,128.398102 130.151925,127.062725 129.620386,125.894003 C128.017525,122.3742 129.317517,118.925151 130.016111,117.071905 C130.115476,116.808069 130.228293,116.509282 130.261704,116.384823 C130.453926,115.674725 130.770245,114.508561 140.380035,106.587511 C139.922695,105.646397 139.405909,104.45338 139.101304,103.325151 C138.675639,101.747675 139.043594,99.0279049 139.923996,93.6224623 C140.269822,91.4977082 140.596556,89.4910197 140.669887,88.3363639 C140.888577,84.9056426 143.842198,83.1355115 145.606907,82.0780361 C145.853367,81.9301344 146.156236,81.7485607 146.38534,81.5985279 C146.313745,81.4045934 146.207871,81.1693148 146.133239,81.0039377 C145.893721,80.4724295 145.622528,79.869741 145.579137,79.1783967 C145.499297,77.9163311 146.290748,76.9658393 147.600286,75.3909213 C148.284995,74.5682984 149.709086,72.8561344 149.847069,72.2061344 C149.958149,71.4026918 148.957555,70.0442984 148.074983,68.8461672 C147.818977,68.4983639 147.563404,68.1514131 147.320415,67.8031836 C147.173753,67.5947574 147.116911,67.5103639 146.610973,67.5841016 C146.191817,69.397282 145.768321,73.2908885 145.811712,74.1770197 C145.986144,76.9449541 142.897577,77.5587246 139.62807,78.2091508 C139.029275,78.3280689 138.171437,78.4985607 137.527081,78.6601016 C137.538797,78.6869541 137.549645,78.7129541 137.560492,78.7376754 C137.831252,79.3642328 138.138026,80.0747574 138.188793,80.8756426 C138.334587,83.1858066 135.955896,84.0987902 134.044959,84.8323311 C133.387587,85.0842328 132.20258,85.5394459 131.791668,85.8420689 C130.929056,87.6710197 129.265882,89.114659 126.967464,90.0250852 C126.783053,90.0983967 126.332655,90.3417738 125.971208,90.5374131 C124.151393,91.5228557 122.269962,92.541118 120.628049,91.3775115 C119.740705,90.7483967 119.342376,89.6764295 119.562368,88.5094131 C119.685598,87.8547246 119.260367,85.9375443 117.960375,83.6013803 C117.411045,83.9662328 116.738486,84.4815443 116.161387,85.1234459 C115.122608,86.2785279 114.215303,88.3858066 113.953222,89.1001672 C113.603057,90.0557738 112.654531,90.6780689 111.630072,90.6503639 C110.595632,90.617118 109.700043,89.9342984 109.413663,88.9573803 C109.296073,88.5558721 108.258596,84.9670197 108.116274,82.703741 C107.996515,80.8023311 109.408022,79.3548557 110.922799,78.1652492 C110.368263,78.0079705 109.773374,77.8477082 109.171541,77.6946918 L105.5497,79.9306918 C104.872368,80.348823 104.026245,80.4059377 103.298145,80.0824295 C102.568743,79.7589213 102.052825,79.0982656 101.924388,78.3229541 L101.499157,75.7591836 L91.7006165,73.5436426 C89.3076066,73.488659 71.7663885,73.0816098 68.8995496,72.855282 C66.1975962,72.6421672 45.4545612,68.2541344 38.6955558,66.8143311 C38.4473597,67.2576098 38.2173877,67.5973148 38.0078095,67.8300361 C37.2328475,68.6927246 36.2825861,68.8065279 35.3718104,68.6258066 C35.3848277,68.8406262 35.397845,69.0477738 35.4095605,69.2387246 C35.5089257,70.8140689 34.3508218,73.4285607 31.2605196,79.9541344 C29.7383657,83.1679049 28.0135762,86.8104623 27.5991928,88.3414787 C27.0824068,90.2488557 28.1862721,94.9719049 30.8799811,102.379774 L31.0908611,102.96243 C31.8215643,104.99043 31.9053088,107.725544 31.8506363,109.635905 C34.2336663,110.26502 36.9989703,111.803708 38.1909192,114.978692 C38.4616787,115.700725 38.6617109,116.111184 38.790148,116.338364 C38.9181513,116.319184 39.0600396,116.295315 39.1806664,116.274856 C39.6766248,116.192167 40.2932099,116.08902 41.048646,116.042987 C44.0044363,115.855872 46.2325607,117.546298 48.3808457,119.174495 C49.1588451,119.76397 49.963313,120.373052 50.7881746,120.879839 C52.7381631,122.076266 57.8491809,122.378036 59.7097841,122.378036 L59.7119537,122.378036 C59.7154249,122.376331 59.7188962,122.3742 59.7223675,122.372495 C60.6422552,121.884036 62.3535936,120.975315 64.4046829,121.348266 C66.8501959,121.792823 68.5979826,124.38302 70.2884933,126.887544 C70.5162957,127.224692 70.7345521,127.5482 70.9415268,127.84443 C71.2942951,128.347807 71.8839779,128.802593 72.4771319,129.168298 C73.1831024,128.251052 74.1737174,127.313348 75.4511464,126.915675 C75.9366909,126.76479 76.4265745,126.689774 76.9073461,126.689774 Z M87.243066,144.438397 C85.4479832,144.438397 83.611679,143.543741 82.5546759,142.032757 C82.2912929,141.656397 81.9775765,141.236561 81.6391272,140.783479 C80.0332288,138.632298 78.0346425,135.955577 77.4440919,133.14843 C77.2306085,132.133577 76.9615847,131.648954 76.8127538,131.444364 C76.4461005,131.705216 75.8933,132.480954 75.5943365,133.156102 C75.0931712,134.287315 73.7801616,134.851216 72.5990604,134.437774 C72.2146168,134.303085 68.7902044,133.046134 67.0085728,130.500266 C66.787279,130.184003 66.5538358,129.838331 66.3104127,129.478593 C65.6174595,128.45138 64.1907656,126.338134 63.4700423,125.950692 C63.0686761,125.926397 62.3722517,126.295511 61.9908454,126.497544 C61.5135451,126.750725 61.0193224,127.013282 60.3740993,127.052495 C60.2946939,127.058462 52.2087937,127.279675 48.2593511,124.855708 C47.2340234,124.226593 46.3353972,123.545905 45.4658429,122.886954 C43.8829417,121.687118 42.5087509,120.660331 41.3432704,120.722561 C40.8434069,120.752823 40.4055924,120.826134 39.9825308,120.896889 C36.7060816,121.446725 35.1236143,120.361544 33.7125412,116.600921 C32.7744292,114.10279 29.320511,113.960856 29.2857983,113.96043 C28.6193136,113.946364 27.9888433,113.658659 27.5475576,113.167643 C27.1067057,112.676626 26.894524,112.0262 26.9635156,111.374921 C27.0936884,110.12138 27.282439,106.444298 26.5916553,104.526692 L26.3851145,103.956823 C24.1305217,97.7573148 21.9640124,90.9107902 22.9863028,87.1361016 C23.5087296,85.2069869 25.171904,81.6948557 26.932708,77.9768557 C28.3333673,75.018823 30.4382614,70.5736754 30.6387275,69.4134787 C30.574509,68.392659 30.5107243,67.3475443 30.5146295,66.520659 C30.5285146,63.6338066 31.8961968,62.9445934 33.0408495,62.8746918 C33.770685,62.8299377 34.3408419,63.0750197 35.0589618,63.4373148 C35.0932406,63.3614459 35.1266516,63.285577 35.158327,63.2114131 C35.608291,62.1761016 36.7433978,61.6002656 37.8628838,61.8385279 C49.3593112,64.2991508 67.213378,68.0188557 69.2813898,68.1816754 C72.1595103,68.4088557 91.8550882,68.8576754 92.0538187,68.8623639 C92.2156668,68.8657738 92.3766472,68.8858066 92.5341563,68.9211836 L104.131685,71.5437738 C105.076739,71.7573148 105.796161,72.5108885 105.952368,73.4507246 L106.056506,74.0798393 L107.492746,73.193282 C108.037302,72.8569869 108.695543,72.7508557 109.322542,72.8991836 C115.486224,74.3594459 116.495063,75.2344951 116.826136,75.5222 C117.432741,76.0481672 117.760342,76.8008885 117.725196,77.5868557 C117.71348,77.8374787 117.671391,78.0702 117.601098,78.289282 C117.738213,78.2487902 117.8788,78.2189541 118.023291,78.1997738 C120.140769,77.9240033 121.374807,80.0270197 121.842561,80.8193803 C122.332011,81.6483967 123.557371,83.8750197 124.093683,86.2018066 C124.488974,85.990823 124.847383,85.8101016 125.181927,85.677118 C126.007223,85.3497738 127.078111,84.7594459 127.491627,83.8034131 C128.264853,82.016659 130.320282,81.2281344 132.30802,80.4651836 C132.517164,80.3846262 132.765794,80.2891508 133.007916,80.192823 C132.505015,78.9461016 131.722676,76.3452492 134.348696,74.8491836 C135.357535,74.2742 136.897913,73.967741 138.680846,73.6135443 C139.368593,73.4767246 140.374394,73.276823 141.077761,73.0884295 C141.151526,71.923118 141.320317,70.383577 141.501257,69.1283311 C141.912169,66.2764295 142.336098,63.3282 144.808514,63.1508885 C144.89139,63.1389541 144.987284,63.1167902 145.092724,63.0950525 C146.221322,62.8614787 149.219636,62.2408885 151.253803,65.1477738 C151.47553,65.4644623 151.70854,65.7807246 151.941549,66.0974131 C153.349585,68.0090525 154.945937,70.175577 154.573643,72.853577 C154.312863,74.7315443 152.710002,76.6581016 151.29676,78.3574787 C151.065486,78.6353803 150.786916,78.9703967 150.563453,79.2525607 C151.029472,80.2959705 151.754968,82.0993475 150.681476,83.914659 C150.11913,84.8660033 149.13459,85.4559049 148.092773,86.0799049 C146.621821,86.9617738 145.492355,87.7089541 145.433777,88.6296098 C145.345693,90.0093148 145.001603,92.1238393 144.63712,94.3623967 C144.22317,96.9048557 143.530217,101.159479 143.722005,102.150889 C144.098204,103.542102 145.096196,105.40643 145.448096,106.004856 C146.030402,106.994561 145.8026,108.253643 144.907445,108.983348 C140.681602,112.429839 135.736338,116.716003 134.776964,117.91243 C134.697125,118.156659 134.599495,118.414954 134.491886,118.700102 C133.965554,120.09643 133.169764,122.207118 133.977269,123.97938 C134.447627,125.012134 135.127997,126.283577 135.84872,127.62961 C137.78439,131.244462 138.96766,133.565708 139.077439,135.308561 C139.360348,139.802725 139.325202,141.736954 137.81216,142.788036 C137.064968,143.306757 136.109934,143.40479 135.25817,143.049315 C134.344357,142.667839 129.693716,140.580593 127.814889,136.918856 C127.349738,136.010987 126.546572,134.294134 125.861863,132.743085 C125.450083,131.810495 125.11337,131.047544 124.884699,130.402233 C124.751489,130.30079 124.625222,130.201052 124.504161,130.105151 C123.678865,129.451741 123.17987,129.060889 121.901139,129.135052 C119.021283,129.311085 115.70665,129.120134 113.975351,128.683249 C113.523652,128.642331 112.455801,128.87761 111.778468,129.128233 C111.457376,130.660528 110.632948,132.843675 109.280453,133.492823 C108.472079,133.880692 107.537439,133.821872 106.800661,133.358987 C105.9515,133.040167 102.731893,132.382921 100.941149,132.489052 C100.006509,132.546167 99.2627881,132.433643 98.6648611,132.343282 C97.660361,132.192823 97.3917711,132.151479 95.937741,133.76902 C94.7097776,135.134233 91.4480813,138.76102 91.5435413,140.278397 C91.6554899,142.057052 90.6002224,143.588495 88.8541713,144.179675 C88.3365175,144.354856 87.7915274,144.438397 87.243066,144.438397 Z" id="Fill-3"></path>
                            <polygon id="Fill-5" points="135.674636 49.9138197 128.024814 49.9138197 125.65133 42.8840164 123.27828 49.9138197 115.628459 49.9138197 121.802555 54.2221475 119.565752 61.1654262 125.65133 57.1247705 131.737776 61.1654262 129.50054 54.2221475"></polygon>
                            <polygon id="Fill-7" points="77.7981619 45.0837443 70.1483406 45.0837443 67.7748566 38.053941 65.4018066 45.0837443 57.7519853 45.0837443 63.926081 49.3920721 61.6892784 56.3349246 67.7748566 52.2946951 73.8613026 56.3349246 71.6240662 49.3920721"></polygon>
                            <polygon id="Fill-9" points="113.817278 30.8949902 102.046186 30.8949902 98.3939715 20.0777115 94.7417567 30.8949902 82.9706647 30.8949902 92.4715432 37.5249902 89.0289066 48.208859 98.3939715 41.991023 107.759036 48.208859 104.3164 37.5249902"></polygon>
                        </g>
                    </g>
                </g>
            </g>
        </g>
    </g>
</svg>