<?xml version="1.0" encoding="UTF-8" standalone="no"?>
<svg width="186px" height="182px" viewBox="0 0 186 182" version="1.1" xmlns="http://www.w3.org/2000/svg" xmlns:xlink="http://www.w3.org/1999/xlink">
    <!-- Generator: Sketch 50.2 (55047) - http://www.bohemiancoding.com/sketch -->
    <title>THC Icon</title>
    <desc>Created with Sketch.</desc>
    <defs>
        <polygon id="path-1" points="0 0.212616822 185.062325 0.212616822 185.062325 181.574596 0 181.574596"></polygon>
    </defs>
    <g id="Main" stroke="none" stroke-width="1" fill="none" fill-rule="evenodd">
        <g id="HOME" transform="translate(-1107.000000, -1297.000000)">
            <g id="2---Icons" transform="translate(-48.000000, 846.000000)">
                <g id="Symbols/Text" transform="translate(314.000000, 451.000000)">
                    <g id="0%-THC" transform="translate(816.000000, 0.000000)">
                        <g id="THC-Icon" transform="translate(25.000000, 0.000000)">
                            <g id="Group-3" transform="translate(0.000000, 0.212617)">
                                <mask id="mask-2" fill="white">
                                    <use xlink:href="#path-1"></use>
                                </mask>
                                <g id="Clip-2"></g>
                                <path d="M92.5311623,175.196092 C45.0966294,175.196092 6.50863979,137.376236 6.50863979,90.8935215 C6.50863979,68.794129 15.230651,48.6550636 29.475894,33.6060449 L61.9622508,65.4432879 L71.1611283,65.4432879 L34.0748988,29.0989935 C49.4309496,15.1385729 69.980895,6.5909514 92.5311623,6.5909514 C139.966129,6.5909514 178.553685,44.4074047 178.553685,90.8935215 C178.553685,112.989087 169.832108,133.131979 155.586865,148.181423 L122.796337,116.046092 L113.59746,116.046092 L150.987426,152.688475 C135.631375,166.645068 115.08143,175.196092 92.5311623,175.196092 M92.5311623,0.212446729 C41.5077655,0.212446729 0,40.8902972 0,90.8935215 C0,140.892493 41.5077655,181.574596 92.5311623,181.574596 C143.554559,181.574596 185.062325,140.892493 185.062325,90.8935215 C185.062325,40.8902972 143.554559,0.212446729 92.5311623,0.212446729" id="Fill-1" fill="#FEFEFE" mask="url(#mask-2)"></path>
                            </g>
                            <polygon id="Fill-4" fill="#FEFEFE" points="48.7122656 78.8665533 36.4647412 78.8665533 36.4647412 71.7936421 69.817181 71.7936421 69.817181 78.8665533 57.5696566 78.8665533 57.5696566 109.301376 48.7122656 109.301376"></polygon>
                            <polygon id="Fill-6" fill="#FEFEFE" points="108.580296 71.7937271 108.580296 109.301461 99.7229055 109.301461 99.7229055 93.9233112 82.3361591 93.9233112 82.3361591 109.301461 73.4787682 109.301461 73.4787682 71.7937271 82.3361591 71.7937271 82.3361591 86.5820776 99.7229055 86.5820776 99.7229055 71.7937271"></polygon>
                            <path d="M111.967653,90.5476364 C111.967653,79.2415243 120.825044,71.1506037 132.744533,71.1506037 C139.360348,71.1506037 144.882278,73.5085243 148.491102,77.7948794 L142.80472,82.9385056 C140.235109,80.0456411 137.009428,78.5449916 133.181913,78.5449916 C126.019372,78.5449916 120.934389,83.4747252 120.934389,90.5476364 C120.934389,97.6205477 126.019372,102.550281 133.181913,102.550281 C137.009428,102.550281 140.235109,101.049632 142.80472,98.1027626 L148.491102,103.246389 C144.882278,107.586749 139.360348,109.944244 132.68986,109.944244 C120.825044,109.944244 111.967653,101.853323 111.967653,90.5476364" id="Fill-8" fill="#FEFEFE"></path>
                        </g>
                    </g>
                </g>
            </g>
        </g>
    </g>
</svg>