<?xml version="1.0" encoding="UTF-8" standalone="no"?>
<svg width="186px" height="182px" viewBox="0 0 186 182" version="1.1" xmlns="http://www.w3.org/2000/svg" xmlns:xlink="http://www.w3.org/1999/xlink">
    <!-- Generator: Sketch 50.2 (55047) - http://www.bohemiancoding.com/sketch -->
    <title>Leaf Icon</title>
    <desc>Created with Sketch.</desc>
    <defs></defs>
    <g id="Main" stroke="none" stroke-width="1" fill="none" fill-rule="evenodd">
        <g id="HOME" transform="translate(-704.000000, -1297.000000)" fill="#FEFEFE">
            <g id="2---Icons" transform="translate(-48.000000, 846.000000)">
                <g id="Symbols/Text" transform="translate(314.000000, 451.000000)">
                    <g id="All-Natural" transform="translate(399.000000, 0.000000)">
                        <g id="Leaf-Icon" transform="translate(39.500000, 0.000000)">
                            <path d="M105.509867,67.6834984 C110.077631,56.7494328 119.034821,53.146941 122.835866,51.8026131 C125.489656,55.7695311 132.749393,68.2687115 130.39934,80.7674656 C128.710131,89.7545148 124.365831,94.7759246 120.131744,97.6376295 C121.025163,94.4600885 121.801861,91.116318 122.356397,88.1668098 C123.507124,81.2597607 123.82301,75.6531377 123.82301,75.6531377 L114.863217,75.3347443 C114.863217,75.3347443 114.654506,80.3795967 113.466463,86.6988754 C113.0178,89.0861869 112.372577,91.7283836 111.6115,94.2043508 C111.430994,93.5905803 111.106864,92.9508098 110.783167,92.3114656 C109.179438,89.8414656 106.520876,87.472482 103.88748,84.9611377 C103.88748,84.9611377 103.241389,83.682023 103.080409,80.6033672 C102.776239,77.4987115 103.165889,73.0676295 105.509867,67.6834984 M103.151136,96.7361541 C106.516971,102.429302 106.790334,107.271269 106.790334,107.271269 L107.241166,112.726154 L112.408592,111.195138 C112.408592,111.195138 134.985761,105.125203 139.263239,82.3756295 C143.01265,62.4336295 128.385567,43.5154328 128.385567,43.5154328 L126.612179,41.160941 L123.657257,41.9315639 C123.657257,41.9315639 104.736207,46.6311705 97.2755702,64.3013672 C94.9333277,69.6859246 94.400921,74.0910066 94.4017888,78.012318 C90.7530453,76.188482 86.7402519,74.7346131 82.0214881,73.8787443 C55.0015209,68.9766787 31.8138408,83.7941213 31.8138408,83.7941213 L28.6233055,85.828941 L30.0686575,89.140318 C30.0686575,89.140318 42.1400147,120.08458 72.3049567,125.557367 C85.5990704,127.968974 95.802882,125.608089 100.316841,124.395039 C103.385447,129.307761 105.955926,135.292875 107.833018,142.603564 L116.355431,140.519302 C110.287209,116.183302 96.099242,103.588646 83.4625009,97.6661869 C77.0853357,94.620777 71.1086687,93.3911049 66.6493826,92.7278918 C62.3354562,92.0906787 59.5124422,92.1588754 59.5124422,92.1588754 L59.7888424,100.921728 C59.7888424,100.921728 68.8770731,100.538121 79.6171965,105.536089 C84.6427343,107.899957 90.0292846,111.491367 94.7866663,116.856318 C90.6094213,117.841334 83.6620992,118.614089 73.9420966,116.850777 C52.4974302,112.96058 42.9271262,94.6685148 40.5102513,89.4374 C45.2888947,86.8194984 60.7985494,79.0322852 80.3843482,82.5853344 C93.3942513,84.9457934 99.6447151,91.0165803 103.151136,96.7361541" id="Fill-1"></path>
                            <path d="M92.5311623,6.39344262 C45.0983651,6.39344262 6.50863979,44.3001639 6.50863979,90.8934426 C6.50863979,137.486721 45.0983651,175.393443 92.5311623,175.393443 C139.96396,175.393443 178.553685,137.486721 178.553685,90.8934426 C178.553685,44.3001639 139.96396,6.39344262 92.5311623,6.39344262 M92.5311623,181.786885 C41.5090672,181.786885 0,141.012492 0,90.8934426 C0,40.7743934 41.5090672,0 92.5311623,0 C143.553257,0 185.062325,40.7743934 185.062325,90.8934426 C185.062325,141.012492 143.553257,181.786885 92.5311623,181.786885" id="Fill-3"></path>
                        </g>
                    </g>
                </g>
            </g>
        </g>
    </g>
</svg>