<svg xmlns="http://www.w3.org/2000/svg" viewBox="0 0 456.01 199.71"><defs><style>.cls-1{fill:#231f20;}.cls-2{fill:#00b49b;}</style></defs><title>CocoKeyPine</title><g id="Layer_2" data-name="Layer 2"><g id="Layer_2-2" data-name="Layer 2"><path class="cls-1" d="M45.85,34.1V24.61c0-8-1.92-14-5.8-18.25S30.46,0,22.9,0,9.63,2.12,5.8,6.36,0,16.64,0,24.61v50.9c0,7.91,1.92,14,5.8,18.25s9.58,6.36,17.1,6.36S36.16,98,40.05,93.76s5.8-10.34,5.8-18.25v-13H31.32v14c0,3.53-.75,6-2.17,7.42A8,8,0,0,1,23.35,86a7.9,7.9,0,0,1-5.8-2.12c-1.46-1.41-2.17-3.89-2.17-7.42V23.6c0-3.53.71-6.05,2.17-7.46A7.73,7.73,0,0,1,23.35,14a7.81,7.81,0,0,1,5.8,2.17c1.42,1.41,2.17,3.93,2.17,7.46V34.1Z"/><path class="cls-1" d="M102.64,6.36C98.61,2.12,92.86,0,85.29,0S72,2.12,67.94,6.36s-6,10.28-6,18.25v50.9c0,7.91,2,14,6,18.25s9.79,6.36,17.35,6.36S98.61,98,102.64,93.76s6-10.34,6-18.25V24.61C108.64,16.64,106.63,10.59,102.64,6.36Zm-9.38,70.1c0,3.53-.71,6.06-2.17,7.47a8.84,8.84,0,0,1-11.6,0C78,82.52,77.32,80,77.32,76.46V23.6c0-3.53.71-6.05,2.17-7.46a8.84,8.84,0,0,1,11.6,0c1.46,1.41,2.17,3.93,2.17,7.46Z"/><path class="cls-1" d="M171.13,34.1V24.61c0-8-1.91-14-5.79-18.25S155.75,0,148.24,0,135,2.12,131.09,6.36s-5.8,10.28-5.8,18.25v50.9c0,7.91,1.91,14,5.8,18.25a18.44,18.44,0,0,0,8.52,5.2,115.76,115.76,0,0,1,26.48-9.53c.81-.21,1.62-.36,2.42-.51a30.66,30.66,0,0,0,2.62-13.41v-13H156.61v14c0,3.53-.71,6-2.17,7.42a8,8,0,0,1-5.8,2.12,7.9,7.9,0,0,1-5.8-2.12c-1.46-1.41-2.17-3.89-2.17-7.42V23.6c0-3.53.71-6.05,2.17-7.46a8.84,8.84,0,0,1,11.6,0c1.46,1.41,2.17,3.93,2.17,7.46V34.1Z"/><path class="cls-1" d="M227.93,6.36c-4-4.24-9.79-6.36-17.35-6.36s-13.32,2.12-17.35,6.36-6,10.28-6,18.25v50.9A30.9,30.9,0,0,0,189.5,88c10,1.42,17.24,5.85,19.67,12.11a12.73,12.73,0,0,0,1.41.05c7.56,0,13.31-2.12,17.35-6.36s6-10.34,6-18.25V24.61C233.93,16.64,231.91,10.59,227.93,6.36Zm-9.38,70.1c0,3.53-.71,6.06-2.17,7.47a8.84,8.84,0,0,1-11.6,0c-1.47-1.41-2.17-3.94-2.17-7.47V23.6c0-3.53.7-6.05,2.17-7.46a8.84,8.84,0,0,1,11.6,0c1.46,1.41,2.17,3.93,2.17,7.46Z"/><path class="cls-1" d="M332.39,1.11H317L296.88,43.73V1.11H281.49V99h15.39V68.9L301.62,60l15,39h15.79L311,44.74Z"/><path class="cls-1" d="M389.33,15.08v-14h-42V99h42V85H362.75V56.34h21.08v-14H362.75V15.08Z"/><path class="cls-1" d="M441.33,1.11,429.58,45.7,417.83,1.11H401.74l19.47,65.42V99h15.38V66.53L456,1.11Z"/><path class="cls-2" d="M164,154.33a13,13,0,0,1-11.89-3.43c-8.08,22.53-15.47,44.2-15.63,44.65a4.45,4.45,0,0,1-2.6,2.16c-1,.24-1.95,1.06-3,1.32-.53.12-1.08.1-1.6.22l-1.1.25c-3,.69-4.14-.41-4.4-1.51a3.89,3.89,0,0,1,0-1.15c1.89-13.32,29.53-82.27,33.18-88.5,1.27-2.2,2.86-2.76,7-3.7l3.25-.75c.52-.12,1.07.78,1.28,1.69a2.65,2.65,0,0,1,0,1.38c-3.19,7.61-8.28,21.6-13.51,36.23,1.22,1.5,3.28.89,6.54.14,16.93-3.87,33.55-26.23,31.75-34.07-2.08-9.14-14.3-9.82-26.54-7-13.09,3-32.68,16.82-38.76,24.08a4.6,4.6,0,0,0-1.4,3.8c.26,1.16,1.58,1.82,3.34,1.42a10.09,10.09,0,0,0,3-1.44l.06,0c.27-.06.48.57.64,1.28a3,3,0,0,1,.09,1.62c-.92,1-5,6.13-10.64,7.41-5.92,1.36-9.37-2.29-10.52-7.34-2.57-11.28,19.47-32.7,54.37-40.69,23.12-5.29,37.95,1.42,39.95,10.17C211.27,122.43,186,149.31,164,154.33Z"/><path class="cls-2" d="M227.42,105.06c-.4-2.62-2.27-3.78-4.79-3.38-5.85.86-10.54,8.07-9.73,13.72.4,2.72,2.07,3.94,4.84,3.53C223.09,118.12,228.18,110.31,227.42,105.06Zm-2.37,63.4c-.15-1.26-.8-6.4-2.77-6.1-.55,0-1.41,1.11-2.52,2.67a0,0,0,0,0,0,.05,101.33,101.33,0,0,1-6.91,9v0c-2.58,2.72-5.45,5-8.48,5.45-1.76.3-3.68.15-4-1.82-.5-3.43,2.37-9,3.63-12.1,1.56-3.84,12.61-31.58,12.36-33-.3-2.22-3.73-5.24-6.05-4.89-6.11.91-15.34,14.58-15.19,15.68.26,1.62,3.38,2.63,3.64,4.24.15,1.16-12.11,26.08-11,33.14.91,6.2,8.32,11.2,14.73,10.24a28.06,28.06,0,0,0,10.34-4.29,20.87,20.87,0,0,0,3-2.22,27.74,27.74,0,0,0,9.38-13A6.83,6.83,0,0,0,225.05,168.46Z"/><path class="cls-2" d="M284,159.69c-.15-1.27-.8-6.41-2.77-6.11-1.16.15-4.54,5.25-8.47,9.89-1,1.21-2.07,2.32-3.08,3.38-2.27,2.22-4.54,3.93-6.61,4.23s-4.33-.2-4.69-2.47c-.7-4.84,5.5-17.75,7.27-21.74,2.16-4.64,9-17.35,8.37-21.68a6.33,6.33,0,0,0-7.57-5.35c-10.94,1.61-20.17,14.68-25.87,23.2,1.56-3.63,7.21-14.37,6.76-17.7-.21-1.16-.56-2.73-2.12-2.47-3.78.55-8.22,2.22-10.19,5.65s-3.23,7.26-4.79,10.94c-2.73,6.61-5.5,13.27-8.17,19.92-.81,1.87-1.57,3.73-2.27,5.65a0,0,0,0,0,0,.05c-1.16,2.83-2.32,5.65-3.43,8.53s-3.28,7-3,9.28c.1.45.15.85.71,1.06a6.39,6.39,0,0,0,1.71.6,25.15,25.15,0,0,0,3.73.81,5.14,5.14,0,0,0,1.42.1c1.71-.25,3.22-2.27,4-3.68,3.73-6.91,7.67-13.77,12.11-20.43,3-4.44,19.21-27.44,22.85-28.25l.2.11c0,1.46-2.22,6-2.78,7.21-4.69,9.63-10.64,22.75-9.28,31.72,1,6.91,7.92,10.34,13.62,9.64,4.39-.66,8.37-3.28,11.8-6.41.76-.7,1.52-1.41,2.17-2.12a83.19,83.19,0,0,0,6-6.86A7,7,0,0,0,284,159.69Z"/><path class="cls-2" d="M323.36,153c-.2-1.26-.86-5.6-2.68-5.3a2.94,2.94,0,0,0-1.51.91c-5.8,5.85-14.22,17.1-24.61,18.61-2.78.41-6.61.71-8.73-1.21a4.49,4.49,0,0,1-1.51-2.87c-.15-1.06.91-2.63,2.57-4.39,3.28-3.63,8.88-7.87,10.69-9.28,2-1.52,4.44-2,6.21-4,.8-.91,2.22-2.37,2-3.53s-2.42-3.78-3.73-4.24a4.13,4.13,0,0,0-1.41.06c-3.63.55-6.51,3.37-10.34,3.93-.25,0-1.41.2-1.46-.35-.41-2.63,8.37-10.39,10.54-12.06a37.16,37.16,0,0,1,5.4-3.63,8.21,8.21,0,0,0,0,1.92c.3,2,.75,3.12,3,2.77,6.31-.91,11.6-7.26,10.64-13.57-.45-3-5.29-3.63-7.76-3.22-12.11,1.76-34.15,15.28-32.08,29.2.55,3.73,1.31,6.4,5.45,7.61-.36.21-.71.41-1,.56-4.89,2.93-9.49,7-10.34,12.56a11.35,11.35,0,0,0,0,3.68,10.65,10.65,0,0,0,2.87,6.1,8.32,8.32,0,0,0,2.32,1.92c4.44,2.77,10.95,2.87,16.24,2.07,11.5-1.72,20.93-10.09,26.94-16.6a9.76,9.76,0,0,0,2.42-3.73A12.59,12.59,0,0,0,323.36,153Z"/></g></g></svg>