<svg xmlns="http://www.w3.org/2000/svg" viewBox="0 0 359.07 178.76"><defs><style>.cls-1{fill:#231f20;}.cls-2{fill:#54a4db;}</style></defs><title>ElectricRazz</title><g id="Layer_2" data-name="Layer 2"><g id="Layer_2-2" data-name="Layer 2"><path class="cls-1" d="M38.08,13.72V1H0V89.93H38.08V77.22H14V51.14H33.14V38.48H14V13.72Z"/><path class="cls-1" d="M62.9,77.22V1h-14V89.93h37V77.22Z"/><path class="cls-1" d="M132.25,13.72V1H94.12v86.6a81.63,81.63,0,0,1,12.2-2.72,62.21,62.21,0,0,1,8.48-.61c7.66,0,13.36,1.67,17.45,4.09V77.22H108.09V51.14h19.16V38.48H108.09V13.72Z"/><path class="cls-1" d="M181,31V22.34c0-7.21-1.71-12.71-5.25-16.59S167,0,160.14,0s-12,1.92-15.54,5.75-5.29,9.38-5.29,16.59v46.2c0,7.22,1.76,12.77,5.29,16.6s8.68,5.8,15.54,5.8,12.05-2,15.58-5.8S181,75.76,181,68.54V56.74H167.81V69.45c0,3.23-.71,5.45-2,6.76a7.4,7.4,0,0,1-5.3,1.87,7.17,7.17,0,0,1-5.24-1.87c-1.36-1.31-2-3.53-2-6.76v-48c0-3.23.66-5.45,2-6.81a7,7,0,0,1,5.24-2,7.25,7.25,0,0,1,5.3,2c1.26,1.36,2,3.58,2,6.81V31Z"/><path class="cls-1" d="M187.58,1V13.72H202.2V89.93h14V13.72H230.8V1Z"/><path class="cls-1" d="M281.19,84.89c-.15-1.67-.25-3.58-.25-5.8V65.37a31.93,31.93,0,0,0-2-11.86,12.52,12.52,0,0,0-7.31-7.06c6.1-2.87,9.18-8.87,9.18-18v-7c0-6.86-1.67-12-4.9-15.39s-8.52-5-15.83-5H239V89.93h14V53.72h4.84c3.23,0,5.55.85,7,2.52S267,60.88,267,65V79c0,1.76,0,3.27.1,4.43a15.2,15.2,0,0,0,.25,2.93,12.75,12.75,0,0,0,.4,1.92,11.59,11.59,0,0,1,.51,1.66H282.5A19.25,19.25,0,0,1,281.19,84.89ZM266.87,31.62c0,3.53-.76,6-2.22,7.37a8.82,8.82,0,0,1-6.16,2H253V13.72h6.75c2.43,0,4.24.7,5.4,2.12s1.72,3.78,1.72,7Z"/><path class="cls-1" d="M292.24,1V89.93h14V1Z"/><path class="cls-1" d="M359.07,31V22.34c0-7.21-1.77-12.71-5.3-16.59S345.09,0,338.24,0s-12.06,1.92-15.59,5.75-5.25,9.38-5.25,16.59v46.2c0,7.22,1.77,12.77,5.25,16.6s8.73,5.8,15.59,5.8,12.05-2,15.53-5.8,5.3-9.38,5.3-16.6V56.74H345.85V69.45c0,3.23-.65,5.45-2,6.76a8.36,8.36,0,0,1-10.54,0c-1.31-1.31-2-3.53-2-6.76v-48c0-3.23.65-5.45,2-6.81a8,8,0,0,1,10.54,0c1.32,1.36,2,3.58,2,6.81V31Z"/><path class="cls-2" d="M99.34,140.17c8.33,6.55,27.55,28.08,34.61,27.1.76-.1,1.43-.91,1.85-1a.66.66,0,0,1,.73.55,1.3,1.3,0,0,1-.35.89c-3.74,5.54-4.72,7.52-9.08,8.13-8.64,1.19-29.49-22.62-39.4-32.23C83.23,153.33,76.22,168.1,74,175.16a3.85,3.85,0,0,1-3.66,3c-.71.1-1.42.14-2.07.23s-1.23.23-1.75.3c-1.19.17-3.71.1-4.08-2.54-.2-1.46.14-3.79,1.22-7.28,1.7-5.49,30.89-63.34,33.64-66.84a5.56,5.56,0,0,1,2.19-2c.22-.15.51-.61.86-.66s.74.08,1.09,0,.74-.28,1-.31c.71-.1,1,.4,1.68.78,1.68.91,2.74,1.66,2.92,2.94a4.74,4.74,0,0,1-.44,2.45c-.84,2.21-8.87,17.48-13.63,26.85,13.1-2.41,36.37-21.46,35.1-30.66-.69-5-12.22-5.54-18.33-4.69C97.66,98.47,82,106,75,111.29c-4.62,3.51-7,6.71-6.92,7.59,0,.36,1.11.27,1.58.2a5.43,5.43,0,0,0,2.54-1.55.41.41,0,0,1,.23-.09,1,1,0,0,1,1,.88,1,1,0,0,1-.21.68c-3.49,4.61-7,6-10.73,6.5-1.59.23-5.59-1.43-6.14-5.41-.33-2.35.53-5.27,3.52-9.28C65.07,103.88,85,90.9,106.75,87.89c24.48-3.38,31.19,8.77,31.82,13.34C140.89,118.05,117,133.72,99.34,140.17Z"/><path class="cls-2" d="M179.49,141.34a6.17,6.17,0,0,1-.19,2.57c-1.4,3.23-9.85,13.5-17.79,14-6.16.39-9.15-4.34-9.46-9.29a13.77,13.77,0,0,1,.82-5.69c-6,8.86-15.15,16.27-21.07,16.65A9.36,9.36,0,0,1,122,152.1a17.38,17.38,0,0,1-.43-2.94c-1.12-17.53,20-37.57,33.14-38.41,4.56-.3,7.22,1.31,8,3.21,1.76-3.14,2.69-3.43,5.12-3.59s4.57.65,4.71,2.78a3.86,3.86,0,0,1-.68,2.54c-.83,1-9.69,17.76-11,28.51a6.12,6.12,0,0,0-.07,1.66c.09,1.48.62,3.23,2.1,3.13,4.74-.31,12.43-11.29,13.33-12.18a2,2,0,0,1,1.27-.62,1.25,1.25,0,0,1,1.32,1.05A30.65,30.65,0,0,1,179.49,141.34ZM140.14,130c-4.87,5.71-9.39,15-9.16,18.56.05.94.45,1.45,1.27,1.4,2.25-.15,15-12.77,19.17-18.61,2.45-3.53,6.11-9.52,9-13.91C156.38,117.69,148.72,119.85,140.14,130Z"/><path class="cls-2" d="M212.08,112.92c-6.19,5.5-24.45,21.5-30.26,33.08,5.58-2.08,29.67-7,32.27-10.08a1.8,1.8,0,0,1,1.27-.68,3.54,3.54,0,0,1,1.88.59c.61.32.88,2.62,1,4.92.11,1.77-1.75,5.09-3.26,5.9-2.82,1.49-32.85,8.4-38,9.38a17.68,17.68,0,0,1-2.77.42c-3,.19-3.73-.71-4.36-1.2s-1.06-2.66-1.17-4.31a5,5,0,0,1,.12-1.91c7.18-16.05,21.14-25.79,29-33.59-8.5,1.15-18.31,2.25-22.35,3.28h-.18c-.65,0-1.22-.51-1.31-1.87,0-.82,1.81-6.16,6-7.67,6.39-2.37,11-.54,28.82-4.41.76-.17,2.53-1.35,4.19-1.46s3.54,1.49,3.73,4.51a4.34,4.34,0,0,1-1,3.21C215.1,111.66,214.24,112.19,212.08,112.92Z"/><path class="cls-2" d="M256.27,110.08c-6.18,5.49-24.44,21.49-30.26,33.07,5.59-2.08,29.68-7,32.27-10.08a1.75,1.75,0,0,1,1.27-.67,3.37,3.37,0,0,1,1.88.59c.62.31.88,2.61,1,4.91.11,1.77-1.75,5.09-3.25,5.9-2.82,1.49-32.85,8.4-38,9.38a16.87,16.87,0,0,1-2.77.42c-3,.19-3.74-.71-4.37-1.2s-1.06-2.66-1.16-4.31a4.85,4.85,0,0,1,.11-1.91c7.19-16.05,21.14-25.78,29-33.58-8.5,1.14-18.3,2.25-22.35,3.27h-.17c-.65,0-1.23-.51-1.31-1.86-.06-.83,1.8-6.17,6-7.68,6.4-2.37,11-.53,28.82-4.41.77-.17,2.53-1.35,4.19-1.46s3.55,1.5,3.74,4.51a4.34,4.34,0,0,1-1,3.21C259.3,108.81,258.43,109.34,256.27,110.08Z"/></g></g></svg>