<svg xmlns="http://www.w3.org/2000/svg" viewBox="0 0 266.87 169.14"><defs><style>.cls-1{fill:#231f20;}.cls-2{fill:#00b49b;}</style></defs><title>MelonH2O</title><g id="Layer_2" data-name="Layer 2"><g id="Layer_2-2" data-name="Layer 2"><path class="cls-1" d="M39.29,1,29.76,64.16,19.47,1H0V89.93H12.21V27L22.65,89.93H35.86l9.63-63.75V89.93H58.71V1Z"/><path class="cls-1" d="M111.67,13.72V1H73.54V89.93H85.49a14.69,14.69,0,0,0,1.11-1l.25-.25.31-.2a14.26,14.26,0,0,1,5.49-2.22,12.67,12.67,0,0,1,1.32-.1,8.22,8.22,0,0,1,6.4,3.18,6.49,6.49,0,0,1,.71.6h10.59V77.22H87.51v-26h19.22V38.48H87.51V13.72Z"/><path class="cls-1" d="M139,77.22V1H125V83.68a8,8,0,0,1,1.72-.46c.81-.1,2.07-.2,3.18-.25.45,0,.9,0,1.11-.1a10.75,10.75,0,0,1,1.51-.15,7.3,7.3,0,0,1,3.58,1.06,6.4,6.4,0,0,1,3.43,4.79,4.14,4.14,0,0,1,0,1.36h6A40.9,40.9,0,0,1,162,83V77.22Z"/><path class="cls-1" d="M206,5.8C202.41,1.92,197.16,0,190.3,0s-12.1,1.92-15.78,5.8-5.45,9.38-5.45,16.54V68.6c0,7.21,1.81,12.71,5.45,16.59A17.7,17.7,0,0,0,184,90.28a30.2,30.2,0,0,1,10.89-7.91,11.2,11.2,0,0,1,4.09-.76,11.91,11.91,0,0,1,7.66,2.82c3.23-3.83,4.85-9.08,4.85-15.83V22.34C211.49,15.18,209.67,9.63,206,5.8Zm-8.53,63.7c0,3.18-.65,5.45-2,6.76a8,8,0,0,1-10.54,0c-1.31-1.31-2-3.58-2-6.76v-48q0-4.84,2-6.81a8,8,0,0,1,10.54,0q2,2,2,6.81Z"/><path class="cls-1" d="M254.41,1V54.22L240.08,1H222.53V89.93h12.61V25.52l17.4,64.41h14.33V1Z"/><path class="cls-2" d="M134.51,89.24a4.7,4.7,0,0,1-.67,2.32c-4.34,9.8-10.63,23.5-15.86,36.11s-14,34.23-14.28,34.68c-.08.11,0,.49-.4.55-.14,0-.45-.08-.68,0-.38.06-.71.45-1.23.53-.19,0-.54-.07-.78,0s-.45.21-.78.26l-.28,0a19.77,19.77,0,0,1-2.59.79c-1.46.22-2.42-.09-2.59-1.29a4.7,4.7,0,0,1,.18-1.76c.83-3.29,7.56-19.58,11-27.92-5.21.94-12,2.06-17.19,2.85-4.35.66-6.76,1-10.16,1.49-5,11.82-11.94,30.46-12.84,30.9a3.78,3.78,0,0,1-.7.2c-1.08.17-1.07-.77-1.59-.69-.33,0-.22.43-1.45.61-.48.07-1,.09-1.1.11s-.33-.24-.47-.22,0,.29-.43.36a1.78,1.78,0,0,1-2.28-1.44,3.49,3.49,0,0,1-.05-.72,22.83,22.83,0,0,1,1.31-5.3c2.66-6.68,7.18-15.91,10-22.27-2.43.27-4.25.6-4.94.55-2,0-3.64-.83-4.92-4a9.79,9.79,0,0,1-.84-2.54c-.16-1.11.38-1.39.9-1.47s.9.21,1.27.15c2.9-.34,7-.61,9.75-1,.84-.13,1.68-.36,2.67-.51,2.62-6,7.3-16,11.49-24.52A22,22,0,0,1,71,113.32c-4.53.69-9.12-1-9.71-5.2-.49-3.39,2.5-6.06,5.76-6.55.57-.09,1,.13,1.08.43s-.93.58-.86,1.06c.15,1.07,2.88,1.59,5.81,1.15,5.43-.82,16.57-11.21,17.08-11.67a9.28,9.28,0,0,1,3.29-1.3c2.13-.32,3,1.33,3.6,1.89.37.24.58.35.63.69a3.14,3.14,0,0,1-.25,1.27c-.47,1.46-9.93,22.22-15,33.61,4.16-.63,18.43-3,27.18-4.6,4.46-10.27,13.71-31.54,14.61-33.3a3.93,3.93,0,0,1,3.3-2.58c1.13-.17,3.58-.24,4.2-.33a2.31,2.31,0,0,1,2.12.36A1.28,1.28,0,0,1,134.51,89.24Z"/><path class="cls-2" d="M153.34,146.91c3.06-.3,2.21,1.32,3.17,1.69s2.16,4.17,2.35,5.35l.06.51a2,2,0,0,1-1.31,2.41c-9.73,2.94-25.58,4.73-33.79,6.61a15.1,15.1,0,0,1-4.17-.9c-.13-.1-2-2.14-2.21-3.54a12.22,12.22,0,0,1,.75-3.55c.27-.77,2.89-3.93,6.6-8.68,3.55-4.51,13.23-13.31,17.78-19.23,9.24-12.07,22.61-26.37,22.13-30.09-.09-.73-1-1-2.1-.87-3.54.35-13.86,6.08-22.61,20.44a1.64,1.64,0,0,0-.23,1.23c-.53,1.75-3.24,2.93-4.44,3a9.11,9.11,0,0,1-4.84-1.57,2.67,2.67,0,0,1-.76-1.92c-.71-6.25,16.15-28.3,34.91-30.14,5.82-.57,8.82,5.18,9.14,8,1.3,11.55-32.33,45.49-41.56,56.14C138.31,150.1,149.63,147.28,153.34,146.91Z"/><path class="cls-2" d="M205.9,103.51l.4.53a6.76,6.76,0,0,1,.45,1.34c1.4,8.08-8.29,42.36-26,49.05-4.52,1.7-9.26.43-11.42-4.09-7.33-15.42,11.25-57.2,27.31-63.27,3.52-1.33,7.41.55,9.2,4.35a9.92,9.92,0,0,1,.75,2.44A22.37,22.37,0,0,1,205.9,103.51Zm-8,14.68a11.77,11.77,0,0,1-4,3,3.71,3.71,0,0,1-4.62-2.09c-.32-.76-.88-2.34.33-3.34,7.48-6.13,10.26-15.06,8-19.88a1.67,1.67,0,0,0-2.33-.67c-7.33,2.77-20,33.47-18.67,46.63a4.45,4.45,0,0,0,.51,1.6c.77,1.66,2.13,3.09,4.49,2.19C187.52,143.42,193.5,130.66,197.93,118.19Z"/></g></g></svg>