<svg xmlns="http://www.w3.org/2000/svg" viewBox="0 0 263.59 160.22"><defs><style>.cls-1{fill:#231f20;}.cls-2{fill:#00b49b;}</style></defs><title>SugarCane_1</title><g id="Layer_2" data-name="Layer 2"><g id="Layer_2-2" data-name="Layer 2"><path class="cls-1" d="M39.64,57.5a33.86,33.86,0,0,0-5.09-8.37A64.07,64.07,0,0,0,28,42.37c-2.37-2.12-4.54-4.19-6.55-6.26a34.16,34.16,0,0,1-5.1-6.6,15.62,15.62,0,0,1-2-8.07c0-3.18.6-5.45,1.81-6.76a6.82,6.82,0,0,1,5.15-2,6.65,6.65,0,0,1,5.14,2c1.26,1.31,1.87,3.58,1.87,6.76v3.68H41.56V22.34c0-7.21-1.71-12.71-5.14-16.59S27.84,0,21,0,9,1.92,5.55,5.75.4,15.13.4,22.34a27.56,27.56,0,0,0,2,11.05,34.48,34.48,0,0,0,5.1,8.37,55.54,55.54,0,0,0,6.55,6.81q3.48,3.1,6.51,6.21a32.24,32.24,0,0,1,5.09,6.6,15.78,15.78,0,0,1,2,8.07c0,3.23-.65,5.45-2,6.76a7.25,7.25,0,0,1-5.24,1.87,7.32,7.32,0,0,1-5.3-1.87c-1.31-1.31-2-3.53-2-6.76V63.1H0v5.5c0,7.16,1.77,12.71,5.3,16.54s8.67,5.8,15.53,5.8S32.89,89,36.42,85.14s5.24-9.38,5.24-16.54A27.81,27.81,0,0,0,39.64,57.5Z"/><path class="cls-1" d="M82.21,1V69.6c0,3.23-.7,5.45-2,6.71A7.43,7.43,0,0,1,75,78.23a7.2,7.2,0,0,1-5.24-1.92c-1.37-1.26-2-3.48-2-6.71V1H53.77V68.7c0,7.21,1.71,12.71,5.24,16.59a17,17,0,0,0,8.93,5c8.22-7.71,17.6-13.51,27-16a38.68,38.68,0,0,0,.41-5.65V1Z"/><path class="cls-1" d="M150.15,31V22.34c0-7.21-1.76-12.71-5.29-16.59S136.18,0,129.32,0s-12,1.92-15.58,5.75-5.25,9.38-5.25,16.59V68.6a32.11,32.11,0,0,0,.51,6.05h0c3.68,1.66,6.55,4.59,7.11,8.77a16.08,16.08,0,0,1,0,3.79c3.33,2.52,7.77,3.73,13.21,3.73,6.86,0,12.06-1.92,15.54-5.8s5.29-9.38,5.29-16.54V40.4H130.58V53.06h6.36V69.45c0,3.23-.66,5.45-2,6.76a8.36,8.36,0,0,1-10.54,0c-1.31-1.31-2-3.53-2-6.76v-48c0-3.18.66-5.45,2-6.76a8,8,0,0,1,10.54,0c1.31,1.31,2,3.58,2,6.76V31Z"/><path class="cls-1" d="M194.74,1H174.26L160,89.93H172.9l2.37-16.14h17.15l2.42,16.14h9.33a32.29,32.29,0,0,1,4.59-1.26ZM177.09,61.74l6.71-45,6.76,45Z"/><path class="cls-1" d="M262.28,84.89c-.15-1.67-.25-3.58-.25-5.75V65.42a32,32,0,0,0-2-11.91,12.7,12.7,0,0,0-7.27-7.06c6.11-2.87,9.13-8.87,9.13-18v-7c0-6.86-1.61-12-4.89-15.34S248.51,1,241.19,1H220.11V89.93h14V53.72h4.84c3.23,0,5.55.85,7,2.52s2.11,4.64,2.11,8.77V79c0,1.76,0,3.27.1,4.43a15.09,15.09,0,0,0,.26,2.93,12.75,12.75,0,0,0,.4,1.92c.2.5.35,1.06.56,1.66h14.22A18.87,18.87,0,0,1,262.28,84.89ZM248,31.62c0,3.53-.75,6-2.22,7.37a8.79,8.79,0,0,1-6.15,2h-5.5V13.72h6.76c2.47,0,4.24.71,5.4,2.12s1.71,3.78,1.71,7Z"/><path class="cls-2" d="M90.24,113.25c-3.77.48-6.79-2.14-7-4.13-.09-.75.14-4.1,1.49-4.28a.83.83,0,0,0-.15.56c.06.49.84.56,1.7.44C90.66,105.28,102.56,91,102,86.78c-.1-.86-.76-1.32-2.07-1.16-6.58.85-19.3,9.47-28.42,20.19-9.77,11.52-17.57,27.81-16.13,39.1.54,4.19,3,7.2,8.23,6.54,13.61-1.74,33.64-25.33,33.61-27.29,0-.34.16-.47.43-.5.7-.09,1.39.64,1.56,1.93a45.12,45.12,0,0,1,0,7.21c-.29,4.19-14.16,24.54-36,27.33-7,.89-16.12-5.1-17.36-14.88-3.4-26.66,27.32-64.94,54.74-68.45,3.89-.5,11.31,1.39,12,7.09C113.94,93.88,97.42,112.33,90.24,113.25Z"/><path class="cls-2" d="M142.22,132.39a5.86,5.86,0,0,1-.11,2.35c-1.2,3-8.67,12.9-15.94,13.83-5.64.72-8.5-3.43-8.91-7.95a12.69,12.69,0,0,1,.61-5.24c-5.25,8.44-13.46,15.74-18.89,16.43a8.24,8.24,0,0,1-9.14-6.28,16.21,16.21,0,0,1-.46-2.67c-1.47-16,17.35-35.48,29.38-37,4.18-.53,6.66.79,7.41,2.49,1.54-3,2.39-3.3,4.62-3.58s4.19.33,4.37,2.27a3.59,3.59,0,0,1-.55,2.35c-.73,1-8.43,16.8-9.33,26.7a6.24,6.24,0,0,0,0,1.52c.13,1.34.66,2.91,2,2.73,4.34-.55,11.1-11,11.9-11.9a2,2,0,0,1,1.15-.63,1.07,1.07,0,0,1,1.23.87A27,27,0,0,1,142.22,132.39Zm-36.35-8.1c-4.31,5.5-8.22,14.26-7.92,17.48.08.87.45,1.31,1.21,1.21,2.06-.26,13.43-12.53,17.08-18.1,2.16-3.38,5.36-9.07,7.88-13.24C120.44,112.1,113.47,114.51,105.87,124.29Z"/><path class="cls-2" d="M184.23,131.82c-3.63,4.11-9.34,10.55-15.8,11.36-4.35.45-9.42-2.27-9.91-7.54-.63-6.82,4.43-16.66,8.38-23.91.47-.87,2.34-4.32,2.4-5.41l-.12-.1c-2.8.58-16.07,17.77-18.5,21.07-3.66,5-6.91,10.12-10.05,15.31-.67,1.06-1.9,2.57-3.2,2.74a15.38,15.38,0,0,1-5.17-1.25c-.39-.16-.43-.48-.46-.8-.16-1.78,1.63-4.89,2.64-7,3.93-8.65,8-17.15,12-25.66a71.62,71.62,0,0,1,4.07-8.24c1.63-2.55,5.08-3.75,8-4.12,1.2-.15,1.42,1,1.5,1.93.23,2.53-4.51,10.58-5.85,13.31,4.68-6.36,12.23-16.13,20.57-17.19a4.66,4.66,0,0,1,5.55,4.18c.3,3.28-5.46,12.83-7.27,16.32-1.53,3-6.78,12.67-6.44,16.38.16,1.71,1.9,2.14,3.47,2,5.15-.66,12.91-12.8,14.49-13s1.77,3.69,1.86,4.66A5.4,5.4,0,0,1,184.23,131.82Z"/><path class="cls-2" d="M207.85,104.62c-1.74.22-2-.61-2.17-2.17a5.46,5.46,0,0,1,.08-1.43,28.09,28.09,0,0,0-4.25,2.66c-1.7,1.2-8.67,7-8.49,9,0,.43.9.32,1.12.29,2.93-.37,5.21-2.46,8-2.81a3.67,3.67,0,0,1,1.1,0,6.11,6.11,0,0,1,2.66,3.25c.08.92-1,2-1.68,2.66-1.45,1.49-3.28,1.84-4.88,3-2.11,1.52-10.86,7.75-10.63,10.17.34,3.76,4.72,3.64,7.59,3.27,7.92-1,14.77-9.39,19.41-13.73a2.84,2.84,0,0,1,1.2-.7c1.41-.17,1.71,3.11,1.8,4.07a8.81,8.81,0,0,1-.05,2.94,7.92,7.92,0,0,1-2,2.81c-4.81,4.86-12.31,11-21.09,12.15-6.45.83-15.09-.09-15.82-8-.55-6,4.39-10,9.32-12.55-3.11-1-3.58-3-3.84-5.87-1-10.59,16.32-20.46,25.54-21.64,1.89-.24,5.56.27,5.77,2.58C217,99.27,212.67,104,207.85,104.62Z"/></g></g></svg>