<svg width="28px" height="23px" viewBox="0 0 28 23" version="1.1" xmlns="http://www.w3.org/2000/svg" xmlns:xlink="http://www.w3.org/1999/xlink">
    <!-- Generator: Sketch 50.2 (55047) - http://www.bohemiancoding.com/sketch -->
    <desc>Created with Sketch.</desc>
    <defs></defs>
    <g id="Main" stroke="none" stroke-width="1" fill="none" fill-rule="evenodd">
        <g id="About-(MOBILE)" transform="translate(-311.000000, -42.000000)" fill="#00B39A">
            <g id="MOBILE-NAV-BAR">
                <g id="Cart-Icon" transform="translate(309.000000, 42.000000)">
                    <path d="M10.0013312,19.4828147 C9.32717054,19.4828147 8.77873096,19.9389516 8.77873096,20.4996302 C8.77873096,21.0605553 9.32717054,21.5171853 10.0013312,21.5171853 C10.6740127,21.5171853 11.2215649,21.0605553 11.2215649,20.4996302 C11.2215649,19.9389516 10.6740127,19.4828147 10.0013312,19.4828147 M10.0013312,23 C8.34625055,23 7,21.8781498 7,20.4996302 C7,19.1213571 8.34625055,18 10.0013312,18 C11.6549327,18 13,19.1213571 13,20.4996302 C13,21.8781498 11.6549327,23 10.0013312,23" id="Fill-1"></path>
                    <path d="M17.0007395,19.4828147 C16.3268747,19.4828147 15.778731,19.9389516 15.778731,20.4996302 C15.778731,21.0605553 16.3268747,21.5171853 17.0007395,21.5171853 C17.6737169,21.5171853 18.221269,21.0605553 18.221269,20.4996302 C18.221269,19.9389516 17.6737169,19.4828147 17.0007395,19.4828147 M17.0007395,23 C15.3462506,23 14,21.8781498 14,20.4996302 C14,19.1213571 15.3462506,18 17.0007395,18 C18.6546369,18 20,19.1213571 20,20.4996302 C20,21.8781498 18.6546369,23 17.0007395,23" id="Fill-4"></path>
                    <path d="M19.844294,16 L6.34765159,16 C5.99924598,16 5.68813993,15.7737124 5.56795242,15.4335622 L2.05101736,5.4697193 C1.957354,5.20432736 1.99410098,4.90845703 2.14937771,4.67670632 C2.30493073,4.44495561 2.5591204,4.3069403 2.83044024,4.3069403 L19.1875452,4.3069403 C19.6461918,4.3069403 20.0180823,4.69424577 20.0180823,5.17154872 C20.0180823,5.64885167 19.6461918,6.03615714 19.1875452,6.03615714 L4.02071098,6.03615714 L6.92759084,14.2707832 L19.2425276,14.2707832 L23.5549105,0.595191029 C23.6665329,0.240089135 23.9850989,0 24.3440036,0 L29.1691866,0 C29.6281095,0 30,0.387305467 30,0.864608417 C30,1.34191137 29.6281095,1.72921683 29.1691866,1.72921683 L24.94577,1.72921683 L20.6333871,15.4050965 C20.5217647,15.7599109 20.2031987,16 19.844294,16" id="Fill-7"></path>
                </g>
            </g>
        </g>
    </g>
</svg>
