<svg width="58px" height="58px" viewBox="0 0 58 58" version="1.1" xmlns="http://www.w3.org/2000/svg" xmlns:xlink="http://www.w3.org/1999/xlink">
    <!-- Generator: Sketch 50.2 (55047) - http://www.bohemiancoding.com/sketch -->
    <desc>Created with Sketch.</desc>
    <defs></defs>
    <g id="Symbols" stroke="none" stroke-width="1" fill="none" fill-rule="evenodd">
        <g id="3-Social-Icons" transform="translate(-84.000000, 0.000000)">
            <g id="Social-Icons">
                <g id="IG-Icon" transform="translate(84.000000, 0.000000)">
                    <path d="M29,0 C45.0161563,0 58,12.9833906 58,29 C58,45.0166094 45.0161563,58 29,58 C12.9838437,58 0,45.0166094 0,29 C0,12.9833906 12.9838437,0 29,0" id="Fill-1" fill="#FEFEFE"></path>
                    <path d="M41.4206094,45.1675 L16.4343906,45.1675 C14.3654219,45.1675 12.6875,43.489125 12.6875,41.4187969 L12.6875,16.4348438 C12.6875,14.3649688 14.3654219,12.6875 16.4343906,12.6875 L41.4206094,12.6875 C43.4900313,12.6875 45.1675,14.3649688 45.1675,16.4348438 L45.1675,41.4187969 C45.1675,43.489125 43.4900313,45.1675 41.4206094,45.1675 Z M28.9270469,22.6811719 C25.4774063,22.6811719 22.6811719,25.4774063 22.6811719,28.9265938 C22.6811719,32.3762344 25.4774063,35.1738281 28.9270469,35.1738281 C32.3771406,35.1738281 35.1738281,32.3762344 35.1738281,28.9265938 C35.1738281,25.4774063 32.3771406,22.6811719 28.9270469,22.6811719 Z M41.4206094,17.6836563 C41.4206094,16.994 40.861,16.4348438 40.1695313,16.4348438 L36.4230938,16.4348438 C35.7329844,16.4348438 35.1738281,16.994 35.1738281,17.6836563 L35.1738281,21.4319063 C35.1738281,22.1220156 35.7329844,22.6811719 36.4230938,22.6811719 L40.1695313,22.6811719 C40.861,22.6811719 41.4206094,22.1220156 41.4206094,21.4319063 L41.4206094,17.6836563 Z M41.4206094,26.4276094 L38.5931094,26.4276094 C38.7988281,27.227375 38.9207188,28.0629375 38.9207188,28.9265938 C38.9207188,34.4474688 34.4461094,38.9211719 28.9270469,38.9211719 C23.4084375,38.9211719 18.9338281,34.4474688 18.9338281,28.9265938 C18.9338281,28.0629375 19.0561719,27.227375 19.2623437,26.4276094 L16.4343906,26.4276094 L16.4343906,40.1704375 C16.4343906,40.8591875 16.994,41.4187969 17.6850156,41.4187969 L40.1695313,41.4187969 C40.861,41.4187969 41.4206094,40.8591875 41.4206094,40.1704375 L41.4206094,26.4276094 Z" id="Fill-3" fill="#34BAA4"></path>
                </g>
            </g>
        </g>
    </g>
</svg>
