<svg width="22px" height="22px" viewBox="0 0 22 22" version="1.1" xmlns="http://www.w3.org/2000/svg" xmlns:xlink="http://www.w3.org/1999/xlink">
    <!-- Generator: Sketch 50.2 (55047) - http://www.bohemiancoding.com/sketch -->
    <desc>Created with Sketch.</desc>
    <defs></defs>
    <g id="Main" stroke="none" stroke-width="1" fill="none" fill-rule="evenodd">
        <g id="About-(MOBILE)" transform="translate(-282.000000, -1947.000000)" fill="#E36386">
            <g id="Email-Submission-Box" transform="translate(44.000000, 1941.000000)">
                <path d="M253.630071,17.9891597 L248.71676,22.9039723 C248.167917,23.4520648 247.276704,23.4535664 246.72711,22.9047231 C246.178266,22.3543782 246.177515,21.4639157 246.726359,20.9143216 L250.653103,16.9868262 L246.726359,13.0600816 C246.177515,12.5112384 246.175263,11.6192742 246.725608,11.0696801 C247.275202,10.5215877 248.167917,10.5193352 248.71676,11.0681785 L253.630071,15.9822403 C253.905619,16.2577882 254.042267,16.6204302 254.041516,16.9808197 C254.04527,17.346465 253.908622,17.712861 253.630071,17.9891597 M248.984049,6.48522459 C243.184781,6.48522459 238.4847,11.1883084 238.4847,16.9883278 C238.4847,22.7883473 243.184781,27.4861754 248.984049,27.4861754 C254.783318,27.4861754 259.4849,22.7883473 259.4849,16.9883278 C259.4849,11.1883084 254.783318,6.48522459 248.984049,6.48522459" id="Arrow-Icon"></path>
            </g>
        </g>
    </g>
</svg>
