<svg width="58px" height="58px" viewBox="0 0 58 58" version="1.1" xmlns="http://www.w3.org/2000/svg" xmlns:xlink="http://www.w3.org/1999/xlink">
    <!-- Generator: Sketch 50.2 (55047) - http://www.bohemiancoding.com/sketch -->
    <desc>Created with Sketch.</desc>
    <defs></defs>
    <g id="Symbols" stroke="none" stroke-width="1" fill="none" fill-rule="evenodd">
        <g id="3-Social-Icons" transform="translate(-168.000000, 0.000000)">
            <g id="Social-Icons">
                <g id="Twitter-Icon" transform="translate(168.000000, 0.000000)">
                    <path d="M29,0 C45.0161563,0 58,12.9833906 58,29 C58,45.0166094 45.0161563,58 29,58 C12.9838437,58 0,45.0166094 0,29 C0,12.9833906 12.9838437,0 29,0" id="Fill-5" fill="#FEFEFE"></path>
                    <path d="M45.1675,18.984125 C43.9726094,19.5142812 42.6884531,19.87225 41.3404063,20.0331094 C42.7156406,19.2084219 43.7727813,17.9025156 44.2703125,16.3464844 C42.9829844,17.11 41.5565469,17.6650781 40.0390313,17.9636875 C38.8232969,16.6686562 37.0914531,15.859375 35.1747344,15.859375 C31.494,15.859375 28.5110781,18.84275 28.5110781,22.5230312 C28.5110781,23.0454844 28.5699844,23.5538906 28.6837188,24.0414531 C23.1451719,23.7636875 18.2351094,21.1106406 14.9490469,17.0791875 C14.3749375,18.063375 14.0464219,19.2079687 14.0464219,20.4291406 C14.0464219,22.7409844 15.2231875,24.7805 17.0107656,25.9753906 C15.9187344,25.9414062 14.8910469,25.6409844 13.9929531,25.1420937 C13.9920469,25.1697344 13.9920469,25.1978281 13.9920469,25.2259219 C13.9920469,28.4544375 16.2893906,31.1478125 19.3375625,31.7599844 C18.7784063,31.9122344 18.1893438,31.9937969 17.5821563,31.9937969 C17.1525938,31.9937969 16.7348125,31.9516562 16.3279063,31.8741719 C17.1761563,34.5213281 19.6370781,36.4480156 22.5529375,36.5014844 C20.2723594,38.2890625 17.3990938,39.3543594 14.2770625,39.3543594 C13.7392031,39.3543594 13.2090469,39.3230937 12.6875,39.2614687 C15.6368906,41.1523594 19.1390938,42.2548125 22.9022969,42.2548125 C35.1593281,42.2548125 41.8619531,32.1011875 41.8619531,23.2956094 C41.8619531,23.0065156 41.8551563,22.7192344 41.8424688,22.4333125 C43.1442969,21.4939844 44.2743906,20.3203906 45.1675,18.984125" id="Fill-7" fill="#34BAA4"></path>
                </g>
            </g>
        </g>
    </g>
</svg>
