<svg width="58px" height="58px" viewBox="0 0 58 58" version="1.1" xmlns="http://www.w3.org/2000/svg" xmlns:xlink="http://www.w3.org/1999/xlink">
    <!-- Generator: Sketch 50.2 (55047) - http://www.bohemiancoding.com/sketch -->
    <desc>Created with Sketch.</desc>
    <defs></defs>
    <g id="Symbols" stroke="none" stroke-width="1" fill="none" fill-rule="evenodd">
        <g id="3-Social-Icons">
            <g id="Social-Icons">
                <g id="social-fb">
                    <path d="M29,0 C45.0161563,0 58,12.9833906 58,29 C58,45.0166094 45.0161563,58 29,58 C12.9838437,58 0,45.0166094 0,29 C0,12.9833906 12.9838437,0 29,0" id="Fill-9" fill="#FEFEFE"></path>
                    <path d="M43.1089531,13.140625 L14.8915,13.140625 C13.9245313,13.140625 13.140625,13.9240781 13.140625,14.8915 L13.140625,43.1089531 C13.140625,44.0759219 13.9245313,44.859375 14.8915,44.859375 L30.0825156,44.859375 L30.0825156,32.5765156 L25.9491094,32.5765156 L25.9491094,27.7887969 L30.0825156,27.7887969 L30.0825156,24.2589531 C30.0825156,20.1617969 32.5846719,17.9310625 36.2400313,17.9310625 C37.99,17.9310625 39.494375,18.0615625 39.933,18.1200156 L39.933,22.4011406 L37.3986719,22.4020469 C35.4108125,22.4020469 35.0261094,23.3468125 35.0261094,24.7329219 L35.0261094,27.7887969 L39.76625,27.7887969 L39.1490937,32.5765156 L35.0261094,32.5765156 L35.0261094,44.859375 L43.1089531,44.859375 C44.0759219,44.859375 44.859375,44.0759219 44.859375,43.1089531 L44.859375,14.8915 C44.859375,13.9240781 44.0759219,13.140625 43.1089531,13.140625" id="Fill-11" fill="#34BAA4"></path>
                </g>
            </g>
        </g>
    </g>
</svg>
