<svg width="26px" height="19px" viewBox="0 0 26 19" version="1.1" xmlns="http://www.w3.org/2000/svg" xmlns:xlink="http://www.w3.org/1999/xlink">
    <!-- Generator: Sketch 50.2 (55047) - http://www.bohemiancoding.com/sketch -->
    <desc>Created with Sketch.</desc>
    <defs></defs>
    <g id="Main" stroke="none" stroke-width="1" fill="none" fill-rule="evenodd">
        <g id="About-(MOBILE)" transform="translate(-20.000000, -44.000000)" fill="#00B39A">
            <g id="MOBILE-NAV-BAR">
                <g id="Menu-Icon" transform="translate(20.000000, 44.000000)">
                    <path d="M1.874,0 L23.924,0 C24.957,0 25.797,0.842 25.797,1.876 C25.797,2.909 24.957,3.748 23.924,3.75 L1.874,3.748 C0.839,3.748 0,2.909 0,1.876 C0,0.84 0.839,0 1.874,0" id="Fill-1"></path>
                    <path d="M1.874,7.3877 L23.924,7.3877 C24.957,7.3877 25.797,8.2307 25.797,9.2637 C25.797,10.2997 24.957,11.1377 23.924,11.1377 L1.874,11.1377 C0.839,11.1377 0,10.2997 0,9.2637 C0,8.2297 0.839,7.3877 1.874,7.3877" id="Fill-4"></path>
                    <path d="M1.874,14.7764 L23.924,14.7764 C24.957,14.7764 25.797,15.6184 25.797,16.6544 C25.797,17.6874 24.957,18.5244 23.924,18.5254 L1.874,18.5244 C0.839,18.5244 0,17.6874 0,16.6524 C0,15.6184 0.839,14.7764 1.874,14.7764" id="Fill-6"></path>
                </g>
            </g>
        </g>
    </g>
</svg>
