<svg width="52px" height="26px" viewBox="0 0 52 26" version="1.1" xmlns="http://www.w3.org/2000/svg" xmlns:xlink="http://www.w3.org/1999/xlink">
    <!-- Generator: Sketch 50.2 (55047) - http://www.bohemiancoding.com/sketch -->
    <desc>Created with Sketch.</desc>
    <defs>
        <polygon id="path-1" points="0 0.000162962963 51.9990712 0.000162962963 51.9990712 21.956163 0 21.956163"></polygon>
        <polygon id="path-3" points="0.0157414744 0.114107317 7.94740691 0.114107317 7.94740691 8 0.0157414744 8"></polygon>
        <polygon id="path-5" points="0.15135848 0.114107317 8.86201295 0.114107317 8.86201295 8 0.15135848 8"></polygon>
    </defs>
    <g id="Main" stroke="none" stroke-width="1" fill="none" fill-rule="evenodd">
        <g id="truck">
            <g>
                <g id="Group-6">
                    <mask id="mask-2" fill="white">
                        <use xlink:href="#path-1"></use>
                    </mask>
                    <g id="Clip-5"></g>
                    <path d="M39.829725,11.6650519 L40.2441,6.86253333 L44.356975,6.86253333 C44.746975,6.86253333 45.426225,7.15260741 45.679725,7.42964444 L49.5456,11.6650519 L39.829725,11.6650519 Z M51.2226,11.3798667 L46.7311,6.46001481 C46.2436,5.9254963 45.227975,5.48875556 44.47235,5.48875556 L38.9896,5.48875556 L39.345475,1.37231111 C39.40885,0.617792593 38.844975,0.000162962963 38.0926,0.000162962963 L10.670725,0.000162962963 C9.9151,0.000162962963 9.2456,0.617792593 9.1806,1.37231111 L9.15785,1.62653333 L5.6186,1.62653333 C5.168475,1.62653333 4.7736,1.98994074 4.7346,2.43971852 C4.697225,2.88786667 5.028725,3.2529037 5.477225,3.2529037 L13.28535,3.2529037 C13.73385,3.2529037 14.066975,3.61794074 14.027975,4.06608889 C13.988975,4.51423704 13.592475,4.87927407 13.1456,4.87927407 L2.366975,4.87927407 C1.918475,4.87927407 1.5236,5.24431111 1.4846,5.69245926 C1.4456,6.14060741 1.778725,6.50564444 2.227225,6.50564444 L11.785475,6.50564444 C12.233975,6.50564444 12.5671,6.87068148 12.5281,7.31882963 C12.4891,7.76697778 12.094225,8.13201481 11.645725,8.13201481 L3.991975,8.13201481 C3.543475,8.13201481 3.1486,8.49542222 3.111225,8.9452 C3.072225,9.39334815 3.403725,9.75838519 3.852225,9.75838519 L13.537225,9.75838519 C13.985725,9.75838519 14.31885,10.1217926 14.27985,10.5715704 C14.24085,11.0197185 13.84435,11.3847556 13.397475,11.3847556 L0.884975,11.3847556 C0.436475,11.3847556 0.0416,11.748163 0.0026,12.1979407 C-0.034775,12.6477185 0.296725,13.0111259 0.745225,13.0111259 L12.03735,13.0111259 C12.48585,13.0111259 12.818975,13.3745333 12.779975,13.8243111 C12.7426,14.2740889 12.3461,14.6374963 11.899225,14.6374963 L8.03985,14.6374963 L7.52635,20.5840148 C7.46135,21.3385333 8.025225,21.956163 8.779225,21.956163 L12.20635,21.956163 C12.4501,19.1189778 14.95585,16.8097926 17.791475,16.8097926 C20.6271,16.8097926 22.7331,19.1189778 22.48935,21.956163 L38.942475,21.956163 C39.186225,19.1189778 41.6936,16.8097926 44.5276,16.8097926 C47.3616,16.8097926 49.47085,19.1189778 49.225475,21.956163 L49.911225,21.956163 C50.665225,21.956163 51.33635,21.3385333 51.40135,20.5840148 L51.991225,13.7232741 C52.056225,12.9687556 51.7101,11.9143852 51.2226,11.3798667 Z" id="Fill-4" fill="#FEFEFE" mask="url(#mask-2)"></path>
                </g>
                <g id="Group-3" transform="translate(13.000000, 18.000000)">
                    <mask id="mask-4" fill="white">
                        <use xlink:href="#path-3"></use>
                    </mask>
                    <g id="Clip-2"></g>
                    <path d="M3.81299512,6.00366829 C2.73592195,6.00366829 1.93670244,5.13108293 2.03036098,4.05713171 C2.12245854,2.98005854 3.07153171,2.10903415 4.15016585,2.10903415 C5.22723902,2.10903415 6.02489756,2.98005854 5.9328,4.05713171 C5.83914146,5.13108293 4.89006829,6.00366829 3.81299512,6.00366829 M4.32187317,0.114107317 C2.13962927,0.114107317 0.218068293,1.87800976 0.0307512195,4.05557073 C-0.158126829,6.23313171 1.45748293,8.0001561 3.6412878,8.0001561 C5.82353171,8.0001561 7.74509268,6.23313171 7.93240976,4.05713171 C8.1212878,1.87800976 6.50411707,0.114107317 4.32187317,0.114107317" id="Fill-1" fill="#FEFEFE" mask="url(#mask-4)"></path>
                </g>
                <g id="Group-9" transform="translate(40.000000, 18.000000)">
                    <mask id="mask-6" fill="white">
                        <use xlink:href="#path-5"></use>
                    </mask>
                    <g id="Clip-8"></g>
                    <path d="M4.32154286,6.00366829 C3.13868571,6.00366829 2.26097143,5.13108293 2.36382857,4.05713171 C2.46668571,2.98005854 3.50897143,2.10903415 4.69182857,2.10903415 C5.8764,2.10903415 6.75411429,2.98005854 6.64954286,4.05713171 C6.54668571,5.13108293 5.5044,6.00366829 4.32154286,6.00366829 M4.8804,0.114107317 C2.48382857,0.114107317 0.373542857,1.87800976 0.167828571,4.05557073 C-0.0396,6.23313171 1.7364,8.0001561 4.13297143,8.0001561 C6.52954286,8.0001561 8.63982857,6.23313171 8.84554286,4.05713171 C9.05297143,1.87800976 7.27697143,0.114107317 4.8804,0.114107317" id="Fill-7" fill="#FEFEFE" mask="url(#mask-6)"></path>
                </g>
            </g>
        </g>
    </g>
</svg>
